<svg width="22" height="20" viewBox="0 0 22 20" fill="none" xmlns="http://www.w3.org/2000/svg">
<path d="M11.0125 1.00018C10.9047 0.996907 10.8001 1.03941 10.722 1.11787C10.644 1.19633 10.6002 1.30585 10.6002 1.41864V4.56855C10.594 4.61269 10.594 4.65846 10.6002 4.70259V8.35924L7.00226 12.1254L5.28604 10.329C5.20953 10.2489 5.1049 10.2047 4.99714 10.2064C4.89252 10.208 4.79413 10.2521 4.72074 10.329L1.12277 14.0951C1.01815 14.1997 0.975982 14.3567 1.01346 14.5021C1.04938 14.6493 1.15869 14.7637 1.29924 14.8013C1.43822 14.8405 1.58814 14.7964 1.68808 14.6869L5.00339 11.2166L6.43696 12.7171L1.12277 18.2798C1.01815 18.3844 0.975982 18.5413 1.01346 18.6868C1.04938 18.8339 1.15869 18.9483 1.29924 18.9859C1.43822 19.0251 1.58814 18.981 1.68808 18.8715L6.03718 14.3191L6.02313 14.3469L7.84397 15.2998L9.4009 14.0771L11 15.3325L12.5991 14.0771L14.156 15.2998L15.9769 14.3469L15.9628 14.3191L20.3119 18.8715C20.4119 18.981 20.5618 19.0251 20.7008 18.9859C20.8413 18.9483 20.9506 18.8339 20.9865 18.6868C21.024 18.5413 20.9819 18.3844 20.8772 18.2798L15.563 12.7171L16.9966 11.2166L20.3119 14.6869C20.4119 14.7964 20.5618 14.8405 20.7008 14.8013C20.8413 14.7637 20.9506 14.6493 20.9865 14.5021C21.024 14.3567 20.9819 14.1997 20.8772 14.0951L17.2793 10.329C17.2027 10.2489 17.0981 10.2047 16.9904 10.2064C16.8857 10.208 16.7874 10.2521 16.714 10.329L14.9977 12.1254L11.3998 8.35924V4.91836L14.7448 3.53874C14.8947 3.47663 14.9931 3.32788 14.9977 3.16114C15.0024 2.99278 14.9103 2.83912 14.7651 2.76884L11.1671 1.03941C11.1187 1.01489 11.0656 1.00181 11.0125 1.00018ZM11.3998 2.07249L13.5798 3.11864L11.3998 4.01932V2.07249ZM11 9.12424L14.6589 12.9525C14.6885 13.0016 14.7276 13.0424 14.7729 13.0751L15.3897 13.7175L14.2404 14.3191L12.5991 13.031L11 14.2864L9.4009 13.031L7.75964 14.3191L6.6103 13.7175L7.22713 13.0719C7.27398 13.0408 7.31302 12.9999 7.34425 12.9525L11 9.12424Z" fill="#5DB7AB" stroke="#5DB7AB" stroke-width="0.5"/>
</svg>
