<svg width="18" height="18" viewBox="0 0 18 18" fill="none" xmlns="http://www.w3.org/2000/svg">
<path d="M4.33317 0.666748C2.31755 0.666748 0.666504 2.31779 0.666504 4.33342V13.6667C0.666504 14.0417 0.7889 14.3868 0.999837 14.6667V15.6667C0.999837 16.2149 1.45166 16.6667 1.99984 16.6667H3.33317C3.88135 16.6667 4.33317 16.2149 4.33317 15.6667V15.3334H7.99984V14.6667H2.33317C1.78109 14.6667 1.33317 14.2188 1.33317 13.6667V4.33342C1.33317 2.68237 2.68213 1.33341 4.33317 1.33341H9.6665C11.3175 1.33341 12.6665 2.68237 12.6665 4.33342V9.00008H13.3332V4.33342C13.3332 2.31779 11.6821 0.666748 9.6665 0.666748H4.33317ZM4.6665 1.66675C4.49203 1.66675 4.31364 1.72795 4.18734 1.85425C4.06104 1.98055 3.99984 2.15894 3.99984 2.33341V3.00008C3.99984 3.17456 4.06104 3.35295 4.18734 3.47925C4.31364 3.60555 4.49203 3.66675 4.6665 3.66675H9.6665C9.84098 3.66675 10.0194 3.60555 10.1457 3.47925C10.272 3.35295 10.3332 3.17456 10.3332 3.00008V2.33341C10.3332 2.15894 10.272 1.98055 10.1457 1.85425C10.0194 1.72795 9.84098 1.66675 9.6665 1.66675H4.6665ZM4.6665 2.33341H9.6665V3.00008H4.6665V2.33341ZM2.99984 4.00008C2.43343 4.00008 1.99984 4.43368 1.99984 5.00008V9.33342C1.99984 9.89982 2.43343 10.3334 2.99984 10.3334H8.96859L9.33317 9.66675H2.99984C2.79932 9.66675 2.6665 9.53394 2.6665 9.33342V5.00008C2.6665 4.79956 2.79932 4.66675 2.99984 4.66675H10.9998C11.2004 4.66675 11.3332 4.79956 11.3332 5.00008V9.00008H11.9998V5.00008C11.9998 4.43368 11.5662 4.00008 10.9998 4.00008H2.99984ZM11.1978 9.66675C10.5389 9.66675 9.95036 10.0483 9.6665 10.6563V10.6667L8.7915 12.5938V12.6147C8.70557 12.8308 8.6665 13.06 8.6665 13.2709V16.6667C8.6665 16.8412 8.7277 17.0196 8.854 17.1459C8.98031 17.2722 9.15869 17.3334 9.33317 17.3334H10.3332C10.5077 17.3334 10.686 17.2722 10.8123 17.1459C10.9386 17.0196 10.9998 16.8412 10.9998 16.6667V16.3334H14.9998V16.6667C14.9998 16.8412 15.061 17.0196 15.1873 17.1459C15.3136 17.2722 15.492 17.3334 15.6665 17.3334H16.6665C16.841 17.3334 17.0194 17.2722 17.1457 17.1459C17.272 17.0196 17.3332 16.8412 17.3332 16.6667V13.2709C17.3332 13.0339 17.2889 12.8165 17.2082 12.6147V12.5938L16.3332 10.6667V10.6563C16.0493 10.0483 15.4608 9.66675 14.8019 9.66675H11.1978ZM11.1978 10.3334H14.8019C15.2108 10.3334 15.5467 10.5457 15.729 10.9376L15.9998 11.5417V12.0001C15.9998 12.185 15.8514 12.3334 15.6665 12.3334H10.3332C10.1483 12.3334 9.99984 12.185 9.99984 12.0001V11.5417L10.2707 10.9376C10.453 10.5457 10.7889 10.3334 11.1978 10.3334ZM3.49984 11.0001C2.67562 11.0001 1.99984 11.6759 1.99984 12.5001C1.99984 13.3243 2.67562 14.0001 3.49984 14.0001C4.32406 14.0001 4.99984 13.3243 4.99984 12.5001C4.99984 11.6759 4.32406 11.0001 3.49984 11.0001ZM3.49984 11.6667C3.96338 11.6667 4.33317 12.0365 4.33317 12.5001C4.33317 12.9636 3.96338 13.3334 3.49984 13.3334C3.0363 13.3334 2.6665 12.9636 2.6665 12.5001C2.6665 12.0365 3.0363 11.6667 3.49984 11.6667ZM9.52067 12.5938C9.70296 12.8425 10.0037 13.0001 10.3332 13.0001H15.6665C15.9959 13.0001 16.2967 12.8425 16.479 12.5938L16.5936 12.8542C16.5949 12.8569 16.5923 12.8621 16.5936 12.8647C16.6431 12.9923 16.6665 13.1121 16.6665 13.2709V15.6667H9.33317V13.2709C9.33317 13.1511 9.36182 12.9806 9.40609 12.8647C9.40739 12.8621 9.40479 12.8569 9.40609 12.8542L9.52067 12.5938ZM10.6665 13.6667C10.298 13.6667 9.99984 13.9649 9.99984 14.3334C9.99984 14.7019 10.298 15.0001 10.6665 15.0001C11.035 15.0001 11.3332 14.7019 11.3332 14.3334C11.3332 13.9649 11.035 13.6667 10.6665 13.6667ZM15.3332 13.6667C14.9647 13.6667 14.6665 13.9649 14.6665 14.3334C14.6665 14.7019 14.9647 15.0001 15.3332 15.0001C15.7017 15.0001 15.9998 14.7019 15.9998 14.3334C15.9998 13.9649 15.7017 13.6667 15.3332 13.6667ZM1.6665 15.1876C1.87093 15.2787 2.09619 15.3334 2.33317 15.3334H3.6665V15.6667C3.6665 15.8516 3.51807 16.0001 3.33317 16.0001H1.99984C1.81494 16.0001 1.6665 15.8516 1.6665 15.6667V15.1876ZM9.33317 16.3334H10.3332V16.6667H9.33317V16.3334ZM15.6665 16.3334H16.6665V16.6667H15.6665V16.3334Z" fill="#5DB7AB"/>
</svg>
